<mxfile host="app.diagrams.net" modified="2021-03-13T07:22:30.140Z" agent="5.0 (X11; Linux x86_64) AppleWebKit/537.36 (KHTML, like Gecko) Chrome/88.0.4324.182 Safari/537.36" etag="wL7z5CQhXUU_aX_jdgGO" version="14.3.0" type="github">
  <diagram name="Page-1" id="9f46799a-70d6-7492-0946-bef42562c5a5">
    <mxGraphModel dx="860" dy="2144" grid="1" gridSize="10" guides="1" tooltips="1" connect="1" arrows="1" fold="1" page="1" pageScale="1" pageWidth="1100" pageHeight="850" background="#ffffff" math="0" shadow="0">
      <root>
        <mxCell id="0" />
        <mxCell id="1" parent="0" />
        <mxCell id="tu9RRy25D7Onpq2zuEHX-16" style="edgeStyle=orthogonalEdgeStyle;rounded=0;orthogonalLoop=1;jettySize=auto;html=1;exitX=0.5;exitY=0.5;exitDx=0;exitDy=0;exitPerimeter=0;entryX=-0.008;entryY=0.65;entryDx=0;entryDy=0;entryPerimeter=0;" edge="1" parent="1" source="tu9RRy25D7Onpq2zuEHX-1" target="tu9RRy25D7Onpq2zuEHX-12">
          <mxGeometry relative="1" as="geometry" />
        </mxCell>
        <mxCell id="tu9RRy25D7Onpq2zuEHX-17" style="edgeStyle=orthogonalEdgeStyle;rounded=0;orthogonalLoop=1;jettySize=auto;html=1;exitX=0.5;exitY=0.5;exitDx=0;exitDy=0;exitPerimeter=0;entryX=0.017;entryY=0.65;entryDx=0;entryDy=0;entryPerimeter=0;" edge="1" parent="1" source="tu9RRy25D7Onpq2zuEHX-1" target="tu9RRy25D7Onpq2zuEHX-13">
          <mxGeometry relative="1" as="geometry" />
        </mxCell>
        <mxCell id="tu9RRy25D7Onpq2zuEHX-18" style="edgeStyle=orthogonalEdgeStyle;rounded=0;orthogonalLoop=1;jettySize=auto;html=1;exitX=0.5;exitY=0.5;exitDx=0;exitDy=0;exitPerimeter=0;entryX=0;entryY=0.5;entryDx=0;entryDy=0;" edge="1" parent="1" source="tu9RRy25D7Onpq2zuEHX-1" target="tu9RRy25D7Onpq2zuEHX-14">
          <mxGeometry relative="1" as="geometry" />
        </mxCell>
        <mxCell id="tu9RRy25D7Onpq2zuEHX-57" style="edgeStyle=orthogonalEdgeStyle;rounded=0;orthogonalLoop=1;jettySize=auto;html=1;exitX=0.5;exitY=0.5;exitDx=0;exitDy=0;exitPerimeter=0;entryX=0.004;entryY=0.604;entryDx=0;entryDy=0;entryPerimeter=0;endArrow=classic;endFill=1;" edge="1" parent="1" source="tu9RRy25D7Onpq2zuEHX-1" target="tu9RRy25D7Onpq2zuEHX-52">
          <mxGeometry relative="1" as="geometry" />
        </mxCell>
        <mxCell id="tu9RRy25D7Onpq2zuEHX-1" value="Usuario Intenet" style="shape=umlActor;verticalLabelPosition=bottom;verticalAlign=top;html=1;" vertex="1" parent="1">
          <mxGeometry x="120" y="-710" width="30" height="60" as="geometry" />
        </mxCell>
        <mxCell id="tu9RRy25D7Onpq2zuEHX-40" style="edgeStyle=orthogonalEdgeStyle;rounded=0;orthogonalLoop=1;jettySize=auto;html=1;exitX=0.5;exitY=1;exitDx=0;exitDy=0;entryX=0.5;entryY=0;entryDx=0;entryDy=0;endArrow=none;endFill=0;" edge="1" parent="1" source="tu9RRy25D7Onpq2zuEHX-12" target="tu9RRy25D7Onpq2zuEHX-13">
          <mxGeometry relative="1" as="geometry" />
        </mxCell>
        <mxCell id="tu9RRy25D7Onpq2zuEHX-12" value="Registrarse" style="ellipse;whiteSpace=wrap;html=1;" vertex="1" parent="1">
          <mxGeometry x="340" y="-830" width="120" height="80" as="geometry" />
        </mxCell>
        <mxCell id="tu9RRy25D7Onpq2zuEHX-39" style="edgeStyle=orthogonalEdgeStyle;rounded=0;orthogonalLoop=1;jettySize=auto;html=1;exitX=0.5;exitY=1;exitDx=0;exitDy=0;entryX=0.5;entryY=0;entryDx=0;entryDy=0;endArrow=none;endFill=0;" edge="1" parent="1" source="tu9RRy25D7Onpq2zuEHX-13" target="tu9RRy25D7Onpq2zuEHX-14">
          <mxGeometry relative="1" as="geometry" />
        </mxCell>
        <mxCell id="tu9RRy25D7Onpq2zuEHX-13" value="Ver Torneos diponibles" style="ellipse;whiteSpace=wrap;html=1;" vertex="1" parent="1">
          <mxGeometry x="340" y="-730" width="120" height="80" as="geometry" />
        </mxCell>
        <mxCell id="tu9RRy25D7Onpq2zuEHX-53" style="edgeStyle=orthogonalEdgeStyle;rounded=0;orthogonalLoop=1;jettySize=auto;html=1;exitX=0.5;exitY=1;exitDx=0;exitDy=0;entryX=0.5;entryY=0;entryDx=0;entryDy=0;endArrow=none;endFill=0;" edge="1" parent="1" source="tu9RRy25D7Onpq2zuEHX-14" target="tu9RRy25D7Onpq2zuEHX-52">
          <mxGeometry relative="1" as="geometry" />
        </mxCell>
        <mxCell id="tu9RRy25D7Onpq2zuEHX-14" value="Ver Crews" style="ellipse;whiteSpace=wrap;html=1;" vertex="1" parent="1">
          <mxGeometry x="340" y="-630" width="120" height="80" as="geometry" />
        </mxCell>
        <mxCell id="tu9RRy25D7Onpq2zuEHX-25" style="edgeStyle=orthogonalEdgeStyle;rounded=0;orthogonalLoop=1;jettySize=auto;html=1;exitX=0.5;exitY=0.5;exitDx=0;exitDy=0;exitPerimeter=0;" edge="1" parent="1" source="tu9RRy25D7Onpq2zuEHX-22" target="tu9RRy25D7Onpq2zuEHX-13">
          <mxGeometry relative="1" as="geometry" />
        </mxCell>
        <mxCell id="tu9RRy25D7Onpq2zuEHX-26" style="edgeStyle=orthogonalEdgeStyle;rounded=0;orthogonalLoop=1;jettySize=auto;html=1;exitX=0.5;exitY=0.5;exitDx=0;exitDy=0;exitPerimeter=0;entryX=1;entryY=0.5;entryDx=0;entryDy=0;" edge="1" parent="1" source="tu9RRy25D7Onpq2zuEHX-22" target="tu9RRy25D7Onpq2zuEHX-14">
          <mxGeometry relative="1" as="geometry" />
        </mxCell>
        <mxCell id="tu9RRy25D7Onpq2zuEHX-31" style="edgeStyle=orthogonalEdgeStyle;rounded=0;orthogonalLoop=1;jettySize=auto;html=1;exitX=0.5;exitY=0.5;exitDx=0;exitDy=0;exitPerimeter=0;entryX=0;entryY=0.5;entryDx=0;entryDy=0;" edge="1" parent="1" source="tu9RRy25D7Onpq2zuEHX-22" target="tu9RRy25D7Onpq2zuEHX-28">
          <mxGeometry relative="1" as="geometry" />
        </mxCell>
        <mxCell id="tu9RRy25D7Onpq2zuEHX-32" style="edgeStyle=orthogonalEdgeStyle;rounded=0;orthogonalLoop=1;jettySize=auto;html=1;exitX=0.5;exitY=0.5;exitDx=0;exitDy=0;exitPerimeter=0;" edge="1" parent="1" source="tu9RRy25D7Onpq2zuEHX-22" target="tu9RRy25D7Onpq2zuEHX-29">
          <mxGeometry relative="1" as="geometry" />
        </mxCell>
        <mxCell id="tu9RRy25D7Onpq2zuEHX-33" style="edgeStyle=orthogonalEdgeStyle;rounded=0;orthogonalLoop=1;jettySize=auto;html=1;exitX=0.5;exitY=0.5;exitDx=0;exitDy=0;exitPerimeter=0;entryX=0;entryY=0.5;entryDx=0;entryDy=0;" edge="1" parent="1" source="tu9RRy25D7Onpq2zuEHX-22" target="tu9RRy25D7Onpq2zuEHX-30">
          <mxGeometry relative="1" as="geometry" />
        </mxCell>
        <mxCell id="tu9RRy25D7Onpq2zuEHX-54" style="edgeStyle=orthogonalEdgeStyle;rounded=0;orthogonalLoop=1;jettySize=auto;html=1;exitX=0.5;exitY=0.5;exitDx=0;exitDy=0;exitPerimeter=0;entryX=1;entryY=0.5;entryDx=0;entryDy=0;endArrow=none;endFill=0;" edge="1" parent="1" source="tu9RRy25D7Onpq2zuEHX-22" target="tu9RRy25D7Onpq2zuEHX-52">
          <mxGeometry relative="1" as="geometry" />
        </mxCell>
        <mxCell id="tu9RRy25D7Onpq2zuEHX-22" value="Usuario Registrado&lt;br&gt;Team Leader / Player" style="shape=umlActor;verticalLabelPosition=bottom;verticalAlign=top;html=1;outlineConnect=0;" vertex="1" parent="1">
          <mxGeometry x="550" y="-710" width="30" height="60" as="geometry" />
        </mxCell>
        <mxCell id="tu9RRy25D7Onpq2zuEHX-35" style="edgeStyle=orthogonalEdgeStyle;rounded=0;orthogonalLoop=1;jettySize=auto;html=1;exitX=1;exitY=0.5;exitDx=0;exitDy=0;endArrow=none;endFill=0;" edge="1" parent="1" source="tu9RRy25D7Onpq2zuEHX-28" target="tu9RRy25D7Onpq2zuEHX-34">
          <mxGeometry relative="1" as="geometry" />
        </mxCell>
        <mxCell id="tu9RRy25D7Onpq2zuEHX-37" style="edgeStyle=orthogonalEdgeStyle;orthogonalLoop=1;jettySize=auto;html=1;exitX=0.5;exitY=1;exitDx=0;exitDy=0;entryX=0.5;entryY=0;entryDx=0;entryDy=0;rounded=0;endArrow=none;endFill=0;" edge="1" parent="1" source="tu9RRy25D7Onpq2zuEHX-28" target="tu9RRy25D7Onpq2zuEHX-29">
          <mxGeometry relative="1" as="geometry" />
        </mxCell>
        <mxCell id="tu9RRy25D7Onpq2zuEHX-28" value="Crear Torneo" style="ellipse;whiteSpace=wrap;html=1;" vertex="1" parent="1">
          <mxGeometry x="630" y="-830" width="120" height="80" as="geometry" />
        </mxCell>
        <mxCell id="tu9RRy25D7Onpq2zuEHX-38" style="edgeStyle=orthogonalEdgeStyle;rounded=0;orthogonalLoop=1;jettySize=auto;html=1;exitX=0.5;exitY=1;exitDx=0;exitDy=0;entryX=0.5;entryY=0;entryDx=0;entryDy=0;endArrow=none;endFill=0;" edge="1" parent="1" source="tu9RRy25D7Onpq2zuEHX-29" target="tu9RRy25D7Onpq2zuEHX-30">
          <mxGeometry relative="1" as="geometry" />
        </mxCell>
        <mxCell id="tu9RRy25D7Onpq2zuEHX-61" style="edgeStyle=orthogonalEdgeStyle;rounded=0;orthogonalLoop=1;jettySize=auto;html=1;exitX=1;exitY=0.5;exitDx=0;exitDy=0;entryX=0;entryY=0.5;entryDx=0;entryDy=0;endArrow=classic;endFill=1;" edge="1" parent="1" source="tu9RRy25D7Onpq2zuEHX-29" target="tu9RRy25D7Onpq2zuEHX-60">
          <mxGeometry relative="1" as="geometry" />
        </mxCell>
        <mxCell id="tu9RRy25D7Onpq2zuEHX-29" value="Crear crew" style="ellipse;whiteSpace=wrap;html=1;" vertex="1" parent="1">
          <mxGeometry x="630" y="-710" width="120" height="80" as="geometry" />
        </mxCell>
        <mxCell id="tu9RRy25D7Onpq2zuEHX-62" style="edgeStyle=orthogonalEdgeStyle;rounded=0;orthogonalLoop=1;jettySize=auto;html=1;exitX=1;exitY=0.5;exitDx=0;exitDy=0;entryX=0.167;entryY=0.75;entryDx=0;entryDy=0;entryPerimeter=0;endArrow=classic;endFill=1;" edge="1" parent="1" source="tu9RRy25D7Onpq2zuEHX-30" target="tu9RRy25D7Onpq2zuEHX-34">
          <mxGeometry relative="1" as="geometry" />
        </mxCell>
        <mxCell id="tu9RRy25D7Onpq2zuEHX-30" value="Unirse a un Crew" style="ellipse;whiteSpace=wrap;html=1;" vertex="1" parent="1">
          <mxGeometry x="630" y="-600" width="120" height="80" as="geometry" />
        </mxCell>
        <mxCell id="tu9RRy25D7Onpq2zuEHX-46" style="edgeStyle=orthogonalEdgeStyle;rounded=0;orthogonalLoop=1;jettySize=auto;html=1;exitX=0.5;exitY=0;exitDx=0;exitDy=0;entryX=0.5;entryY=1;entryDx=0;entryDy=0;" edge="1" parent="1" source="tu9RRy25D7Onpq2zuEHX-34">
          <mxGeometry relative="1" as="geometry">
            <mxPoint x="890" y="-920" as="targetPoint" />
          </mxGeometry>
        </mxCell>
        <mxCell id="tu9RRy25D7Onpq2zuEHX-47" style="edgeStyle=orthogonalEdgeStyle;rounded=0;orthogonalLoop=1;jettySize=auto;html=1;exitX=1;exitY=0;exitDx=0;exitDy=0;" edge="1" parent="1" source="tu9RRy25D7Onpq2zuEHX-34" target="tu9RRy25D7Onpq2zuEHX-45">
          <mxGeometry relative="1" as="geometry" />
        </mxCell>
        <mxCell id="tu9RRy25D7Onpq2zuEHX-48" style="edgeStyle=orthogonalEdgeStyle;rounded=0;orthogonalLoop=1;jettySize=auto;html=1;exitX=0;exitY=0;exitDx=0;exitDy=0;entryX=0.5;entryY=1;entryDx=0;entryDy=0;" edge="1" parent="1" source="tu9RRy25D7Onpq2zuEHX-34" target="tu9RRy25D7Onpq2zuEHX-44">
          <mxGeometry relative="1" as="geometry" />
        </mxCell>
        <mxCell id="tu9RRy25D7Onpq2zuEHX-51" style="edgeStyle=orthogonalEdgeStyle;rounded=0;orthogonalLoop=1;jettySize=auto;html=1;exitX=0.5;exitY=1;exitDx=0;exitDy=0;entryX=0;entryY=0.5;entryDx=0;entryDy=0;" edge="1" parent="1" source="tu9RRy25D7Onpq2zuEHX-34" target="tu9RRy25D7Onpq2zuEHX-50">
          <mxGeometry relative="1" as="geometry" />
        </mxCell>
        <mxCell id="tu9RRy25D7Onpq2zuEHX-59" style="edgeStyle=orthogonalEdgeStyle;rounded=0;orthogonalLoop=1;jettySize=auto;html=1;exitX=0.5;exitY=1;exitDx=0;exitDy=0;entryX=0.5;entryY=0;entryDx=0;entryDy=0;endArrow=classic;endFill=1;" edge="1" parent="1" source="tu9RRy25D7Onpq2zuEHX-34" target="tu9RRy25D7Onpq2zuEHX-58">
          <mxGeometry relative="1" as="geometry" />
        </mxCell>
        <mxCell id="tu9RRy25D7Onpq2zuEHX-34" value="Torneo" style="ellipse;whiteSpace=wrap;html=1;" vertex="1" parent="1">
          <mxGeometry x="830" y="-830" width="120" height="80" as="geometry" />
        </mxCell>
        <mxCell id="tu9RRy25D7Onpq2zuEHX-44" value="Equipos" style="ellipse;whiteSpace=wrap;html=1;" vertex="1" parent="1">
          <mxGeometry x="680" y="-970" width="120" height="80" as="geometry" />
        </mxCell>
        <mxCell id="tu9RRy25D7Onpq2zuEHX-45" value="Videojuego" style="ellipse;whiteSpace=wrap;html=1;" vertex="1" parent="1">
          <mxGeometry x="970" y="-970" width="120" height="80" as="geometry" />
        </mxCell>
        <mxCell id="tu9RRy25D7Onpq2zuEHX-56" style="edgeStyle=orthogonalEdgeStyle;rounded=0;orthogonalLoop=1;jettySize=auto;html=1;exitX=0.5;exitY=0;exitDx=0;exitDy=0;entryX=0.5;entryY=1;entryDx=0;entryDy=0;endArrow=classic;endFill=1;" edge="1" parent="1" source="tu9RRy25D7Onpq2zuEHX-49" target="tu9RRy25D7Onpq2zuEHX-55">
          <mxGeometry relative="1" as="geometry" />
        </mxCell>
        <mxCell id="tu9RRy25D7Onpq2zuEHX-49" value="Ganar Torneo" style="ellipse;whiteSpace=wrap;html=1;" vertex="1" parent="1">
          <mxGeometry x="830" y="-1000" width="120" height="80" as="geometry" />
        </mxCell>
        <mxCell id="tu9RRy25D7Onpq2zuEHX-50" value="Perder torneo" style="rounded=0;whiteSpace=wrap;html=1;" vertex="1" parent="1">
          <mxGeometry x="980" y="-770" width="120" height="60" as="geometry" />
        </mxCell>
        <mxCell id="tu9RRy25D7Onpq2zuEHX-52" value="Ver torneos que se están jugando" style="ellipse;whiteSpace=wrap;html=1;" vertex="1" parent="1">
          <mxGeometry x="340" y="-520" width="120" height="80" as="geometry" />
        </mxCell>
        <mxCell id="tu9RRy25D7Onpq2zuEHX-55" value="Ganar putnos/premio" style="ellipse;whiteSpace=wrap;html=1;" vertex="1" parent="1">
          <mxGeometry x="830" y="-1140" width="120" height="80" as="geometry" />
        </mxCell>
        <mxCell id="tu9RRy25D7Onpq2zuEHX-58" value="Premio" style="ellipse;whiteSpace=wrap;html=1;" vertex="1" parent="1">
          <mxGeometry x="870" y="-680" width="120" height="80" as="geometry" />
        </mxCell>
        <mxCell id="tu9RRy25D7Onpq2zuEHX-60" value="Aceptar/Rechazar solicitudes" style="ellipse;whiteSpace=wrap;html=1;" vertex="1" parent="1">
          <mxGeometry x="880" y="-570" width="120" height="80" as="geometry" />
        </mxCell>
      </root>
    </mxGraphModel>
  </diagram>
</mxfile>
